<mxfile host="app.diagrams.net" agent="Mozilla/5.0 (Macintosh; Intel Mac OS X 10.15; rv:141.0) Gecko/20100101 Firefox/141.0" version="28.0.7">
  <diagram name="Page-1" id="tGa7KDuS8V7eIaYWTQ6l">
    <mxGraphModel dx="1376" dy="774" grid="1" gridSize="10" guides="1" tooltips="1" connect="1" arrows="1" fold="1" page="1" pageScale="1" pageWidth="850" pageHeight="1100" math="0" shadow="0">
      <root>
        <mxCell id="0" />
        <mxCell id="1" parent="0" />
        <mxCell id="SpF2qePUQonXAKmZul3U-11" value="&lt;b&gt;&lt;font style=&quot;font-size: 22px;&quot;&gt;Stretch goals&lt;/font&gt;&lt;/b&gt;" style="rounded=0;whiteSpace=wrap;html=1;fillColor=#dae8fc;strokeColor=#6c8ebf;verticalAlign=bottom;" vertex="1" parent="1">
          <mxGeometry x="80" y="310" width="720" height="160" as="geometry" />
        </mxCell>
        <mxCell id="SpF2qePUQonXAKmZul3U-1" value="&lt;b&gt;&lt;font style=&quot;font-size: 22px;&quot;&gt;MVP&lt;/font&gt;&lt;/b&gt;" style="rounded=0;whiteSpace=wrap;html=1;fillColor=#d5e8d4;strokeColor=#82b366;" vertex="1" parent="1">
          <mxGeometry x="80" y="40" width="720" height="270" as="geometry" />
        </mxCell>
        <mxCell id="SpF2qePUQonXAKmZul3U-4" value="" style="edgeStyle=orthogonalEdgeStyle;rounded=0;orthogonalLoop=1;jettySize=auto;html=1;" edge="1" parent="1" source="SpF2qePUQonXAKmZul3U-2" target="SpF2qePUQonXAKmZul3U-3">
          <mxGeometry relative="1" as="geometry" />
        </mxCell>
        <mxCell id="SpF2qePUQonXAKmZul3U-2" value="User enters text asking for recipes" style="rounded=1;whiteSpace=wrap;html=1;" vertex="1" parent="1">
          <mxGeometry x="140" y="60" width="120" height="60" as="geometry" />
        </mxCell>
        <mxCell id="SpF2qePUQonXAKmZul3U-6" value="" style="edgeStyle=orthogonalEdgeStyle;rounded=0;orthogonalLoop=1;jettySize=auto;html=1;" edge="1" parent="1" source="SpF2qePUQonXAKmZul3U-3" target="SpF2qePUQonXAKmZul3U-5">
          <mxGeometry relative="1" as="geometry" />
        </mxCell>
        <mxCell id="SpF2qePUQonXAKmZul3U-3" value="AI interprets text &amp;amp; turns information into structured JSON for API call" style="whiteSpace=wrap;html=1;rounded=1;" vertex="1" parent="1">
          <mxGeometry x="390" y="60" width="120" height="60" as="geometry" />
        </mxCell>
        <mxCell id="SpF2qePUQonXAKmZul3U-8" value="" style="edgeStyle=orthogonalEdgeStyle;rounded=0;orthogonalLoop=1;jettySize=auto;html=1;" edge="1" parent="1" source="SpF2qePUQonXAKmZul3U-5" target="SpF2qePUQonXAKmZul3U-7">
          <mxGeometry relative="1" as="geometry" />
        </mxCell>
        <mxCell id="SpF2qePUQonXAKmZul3U-5" value="App makes API call to Spoonacular API" style="whiteSpace=wrap;html=1;rounded=1;" vertex="1" parent="1">
          <mxGeometry x="630" y="60" width="120" height="60" as="geometry" />
        </mxCell>
        <mxCell id="SpF2qePUQonXAKmZul3U-10" value="" style="edgeStyle=orthogonalEdgeStyle;rounded=0;orthogonalLoop=1;jettySize=auto;html=1;" edge="1" parent="1" source="SpF2qePUQonXAKmZul3U-7" target="SpF2qePUQonXAKmZul3U-9">
          <mxGeometry relative="1" as="geometry" />
        </mxCell>
        <mxCell id="SpF2qePUQonXAKmZul3U-7" value="App receives recipe data from Spoonacular API" style="whiteSpace=wrap;html=1;rounded=1;" vertex="1" parent="1">
          <mxGeometry x="630" y="200" width="120" height="60" as="geometry" />
        </mxCell>
        <mxCell id="SpF2qePUQonXAKmZul3U-15" style="edgeStyle=orthogonalEdgeStyle;rounded=0;orthogonalLoop=1;jettySize=auto;html=1;" edge="1" parent="1" source="SpF2qePUQonXAKmZul3U-9" target="SpF2qePUQonXAKmZul3U-14">
          <mxGeometry relative="1" as="geometry">
            <Array as="points">
              <mxPoint x="460" y="300" />
              <mxPoint x="365" y="300" />
            </Array>
          </mxGeometry>
        </mxCell>
        <mxCell id="SpF2qePUQonXAKmZul3U-18" style="edgeStyle=orthogonalEdgeStyle;rounded=0;orthogonalLoop=1;jettySize=auto;html=1;" edge="1" parent="1" source="SpF2qePUQonXAKmZul3U-9" target="SpF2qePUQonXAKmZul3U-16">
          <mxGeometry relative="1" as="geometry">
            <Array as="points">
              <mxPoint x="460" y="300" />
              <mxPoint x="530" y="300" />
            </Array>
          </mxGeometry>
        </mxCell>
        <mxCell id="SpF2qePUQonXAKmZul3U-19" style="edgeStyle=orthogonalEdgeStyle;rounded=0;orthogonalLoop=1;jettySize=auto;html=1;" edge="1" parent="1" source="SpF2qePUQonXAKmZul3U-9" target="SpF2qePUQonXAKmZul3U-17">
          <mxGeometry relative="1" as="geometry">
            <Array as="points">
              <mxPoint x="460" y="300" />
              <mxPoint x="680" y="300" />
            </Array>
          </mxGeometry>
        </mxCell>
        <mxCell id="SpF2qePUQonXAKmZul3U-9" value="Recipes are displayed to user to select" style="whiteSpace=wrap;html=1;rounded=1;" vertex="1" parent="1">
          <mxGeometry x="400" y="200" width="120" height="60" as="geometry" />
        </mxCell>
        <mxCell id="SpF2qePUQonXAKmZul3U-12" value="Recipes to be exportable/shared?" style="rounded=1;whiteSpace=wrap;html=1;" vertex="1" parent="1">
          <mxGeometry x="150" y="350" width="120" height="60" as="geometry" />
        </mxCell>
        <mxCell id="SpF2qePUQonXAKmZul3U-13" style="edgeStyle=orthogonalEdgeStyle;rounded=0;orthogonalLoop=1;jettySize=auto;html=1;entryX=0.5;entryY=0;entryDx=0;entryDy=0;" edge="1" parent="1" source="SpF2qePUQonXAKmZul3U-9" target="SpF2qePUQonXAKmZul3U-12">
          <mxGeometry relative="1" as="geometry">
            <Array as="points">
              <mxPoint x="460" y="300" />
              <mxPoint x="210" y="300" />
            </Array>
          </mxGeometry>
        </mxCell>
        <mxCell id="SpF2qePUQonXAKmZul3U-14" value="Ingredients list to be copyable to clipboard" style="rounded=1;whiteSpace=wrap;html=1;" vertex="1" parent="1">
          <mxGeometry x="305" y="350" width="120" height="60" as="geometry" />
        </mxCell>
        <mxCell id="SpF2qePUQonXAKmZul3U-16" value="&lt;div&gt;Change ingredients amounts based on serving sizes&lt;/div&gt;" style="rounded=1;whiteSpace=wrap;html=1;" vertex="1" parent="1">
          <mxGeometry x="470" y="350" width="120" height="60" as="geometry" />
        </mxCell>
        <mxCell id="SpF2qePUQonXAKmZul3U-17" value="Toggle between metric and imperial" style="rounded=1;whiteSpace=wrap;html=1;" vertex="1" parent="1">
          <mxGeometry x="620" y="350" width="120" height="60" as="geometry" />
        </mxCell>
        <mxCell id="SpF2qePUQonXAKmZul3U-20" value="" style="rounded=0;whiteSpace=wrap;html=1;" vertex="1" parent="1">
          <mxGeometry x="80" y="550" width="720" height="460" as="geometry" />
        </mxCell>
        <mxCell id="SpF2qePUQonXAKmZul3U-21" value="Describe ingredients, cuisine or recipe title..." style="rounded=0;whiteSpace=wrap;html=1;align=left;verticalAlign=top;" vertex="1" parent="1">
          <mxGeometry x="340" y="730" width="340" height="60" as="geometry" />
        </mxCell>
        <mxCell id="SpF2qePUQonXAKmZul3U-22" value="" style="rounded=0;whiteSpace=wrap;html=1;" vertex="1" parent="1">
          <mxGeometry x="80" y="550" width="720" height="80" as="geometry" />
        </mxCell>
        <mxCell id="SpF2qePUQonXAKmZul3U-23" value="" style="rounded=0;whiteSpace=wrap;html=1;" vertex="1" parent="1">
          <mxGeometry x="80" y="630" width="170" height="380" as="geometry" />
        </mxCell>
        <mxCell id="SpF2qePUQonXAKmZul3U-24" value="Saved recipe 1" style="rounded=1;whiteSpace=wrap;html=1;" vertex="1" parent="1">
          <mxGeometry x="90" y="660" width="150" height="30" as="geometry" />
        </mxCell>
        <mxCell id="SpF2qePUQonXAKmZul3U-25" value="Saved recipe 2" style="rounded=1;whiteSpace=wrap;html=1;" vertex="1" parent="1">
          <mxGeometry x="90" y="700" width="150" height="30" as="geometry" />
        </mxCell>
        <mxCell id="SpF2qePUQonXAKmZul3U-26" value="Recipe Finder" style="text;html=1;align=left;verticalAlign=middle;whiteSpace=wrap;rounded=0;fontStyle=1;fontSize=24;" vertex="1" parent="1">
          <mxGeometry x="95" y="575" width="210" height="30" as="geometry" />
        </mxCell>
        <mxCell id="SpF2qePUQonXAKmZul3U-27" value="Find recipes" style="rounded=1;whiteSpace=wrap;html=1;" vertex="1" parent="1">
          <mxGeometry x="450" y="805" width="120" height="30" as="geometry" />
        </mxCell>
        <mxCell id="SpF2qePUQonXAKmZul3U-28" value="" style="rounded=0;whiteSpace=wrap;html=1;" vertex="1" parent="1">
          <mxGeometry x="80" y="1060" width="720" height="460" as="geometry" />
        </mxCell>
        <mxCell id="SpF2qePUQonXAKmZul3U-30" value="" style="rounded=0;whiteSpace=wrap;html=1;" vertex="1" parent="1">
          <mxGeometry x="80" y="1060" width="720" height="80" as="geometry" />
        </mxCell>
        <mxCell id="SpF2qePUQonXAKmZul3U-31" value="" style="rounded=0;whiteSpace=wrap;html=1;" vertex="1" parent="1">
          <mxGeometry x="80" y="1140" width="170" height="380" as="geometry" />
        </mxCell>
        <mxCell id="SpF2qePUQonXAKmZul3U-32" value="Saved recipe 1" style="rounded=1;whiteSpace=wrap;html=1;" vertex="1" parent="1">
          <mxGeometry x="90" y="1170" width="150" height="30" as="geometry" />
        </mxCell>
        <mxCell id="SpF2qePUQonXAKmZul3U-33" value="Saved recipe 2" style="rounded=1;whiteSpace=wrap;html=1;" vertex="1" parent="1">
          <mxGeometry x="90" y="1210" width="150" height="30" as="geometry" />
        </mxCell>
        <mxCell id="SpF2qePUQonXAKmZul3U-34" value="Recipe Finder" style="text;html=1;align=left;verticalAlign=middle;whiteSpace=wrap;rounded=0;fontStyle=1;fontSize=24;" vertex="1" parent="1">
          <mxGeometry x="95" y="1085" width="210" height="30" as="geometry" />
        </mxCell>
        <mxCell id="SpF2qePUQonXAKmZul3U-36" value="&lt;div&gt;1. Chicken basil stir-fry with rice&lt;/div&gt;" style="rounded=1;whiteSpace=wrap;html=1;align=left;" vertex="1" parent="1">
          <mxGeometry x="280" y="1240" width="470" height="40" as="geometry" />
        </mxCell>
        <mxCell id="SpF2qePUQonXAKmZul3U-37" value="Original query:" style="text;html=1;align=center;verticalAlign=middle;whiteSpace=wrap;rounded=0;" vertex="1" parent="1">
          <mxGeometry x="280" y="1160" width="90" height="30" as="geometry" />
        </mxCell>
        <mxCell id="SpF2qePUQonXAKmZul3U-38" value="&quot;Find me a dinner recipe using chicken and rice...&quot;" style="text;html=1;align=left;verticalAlign=middle;whiteSpace=wrap;rounded=0;fontStyle=2" vertex="1" parent="1">
          <mxGeometry x="280" y="1190" width="460" height="30" as="geometry" />
        </mxCell>
        <mxCell id="SpF2qePUQonXAKmZul3U-40" value="" style="shape=image;html=1;verticalAlign=top;verticalLabelPosition=bottom;labelBackgroundColor=#ffffff;imageAspect=0;aspect=fixed;image=https://icons.diagrams.net/icon-cache1/Material_Core-2642/bookmark-outline-1046.svg" vertex="1" parent="1">
          <mxGeometry x="726" y="1251" width="14" height="18" as="geometry" />
        </mxCell>
        <mxCell id="SpF2qePUQonXAKmZul3U-41" value="2. Chicken cashew stir-fry with rice" style="rounded=1;whiteSpace=wrap;html=1;align=left;" vertex="1" parent="1">
          <mxGeometry x="280" y="1300" width="470" height="40" as="geometry" />
        </mxCell>
        <mxCell id="SpF2qePUQonXAKmZul3U-42" value="" style="shape=image;html=1;verticalAlign=top;verticalLabelPosition=bottom;labelBackgroundColor=#ffffff;imageAspect=0;aspect=fixed;image=https://icons.diagrams.net/icon-cache1/Material_Core-2642/bookmark-outline-1046.svg" vertex="1" parent="1">
          <mxGeometry x="726" y="1311" width="14" height="18" as="geometry" />
        </mxCell>
        <mxCell id="SpF2qePUQonXAKmZul3U-43" value="&lt;div&gt;3. Kung-pow chicken with fried rice&lt;/div&gt;" style="rounded=1;whiteSpace=wrap;html=1;align=left;" vertex="1" parent="1">
          <mxGeometry x="280" y="1360" width="470" height="40" as="geometry" />
        </mxCell>
        <mxCell id="SpF2qePUQonXAKmZul3U-44" value="" style="shape=image;html=1;verticalAlign=top;verticalLabelPosition=bottom;labelBackgroundColor=#ffffff;imageAspect=0;aspect=fixed;image=https://icons.diagrams.net/icon-cache1/Material_Core-2642/bookmark-outline-1046.svg" vertex="1" parent="1">
          <mxGeometry x="726" y="1371" width="14" height="18" as="geometry" />
        </mxCell>
        <mxCell id="SpF2qePUQonXAKmZul3U-45" value="" style="rounded=0;whiteSpace=wrap;html=1;" vertex="1" parent="1">
          <mxGeometry x="80" y="1580" width="720" height="460" as="geometry" />
        </mxCell>
        <mxCell id="SpF2qePUQonXAKmZul3U-46" value="" style="rounded=0;whiteSpace=wrap;html=1;" vertex="1" parent="1">
          <mxGeometry x="80" y="1580" width="720" height="80" as="geometry" />
        </mxCell>
        <mxCell id="SpF2qePUQonXAKmZul3U-47" value="" style="rounded=0;whiteSpace=wrap;html=1;" vertex="1" parent="1">
          <mxGeometry x="80" y="1660" width="170" height="380" as="geometry" />
        </mxCell>
        <mxCell id="SpF2qePUQonXAKmZul3U-48" value="Saved recipe 1" style="rounded=1;whiteSpace=wrap;html=1;" vertex="1" parent="1">
          <mxGeometry x="90" y="1690" width="150" height="30" as="geometry" />
        </mxCell>
        <mxCell id="SpF2qePUQonXAKmZul3U-49" value="Saved recipe 2" style="rounded=1;whiteSpace=wrap;html=1;" vertex="1" parent="1">
          <mxGeometry x="90" y="1730" width="150" height="30" as="geometry" />
        </mxCell>
        <mxCell id="SpF2qePUQonXAKmZul3U-50" value="Recipe Finder" style="text;html=1;align=left;verticalAlign=middle;whiteSpace=wrap;rounded=0;fontStyle=1;fontSize=24;" vertex="1" parent="1">
          <mxGeometry x="95" y="1605" width="210" height="30" as="geometry" />
        </mxCell>
        <mxCell id="SpF2qePUQonXAKmZul3U-60" value="Kung-pow chicken with fried rice" style="text;html=1;align=left;verticalAlign=middle;whiteSpace=wrap;rounded=0;fontStyle=1;fontSize=16;" vertex="1" parent="1">
          <mxGeometry x="270" y="1680" width="440" height="30" as="geometry" />
        </mxCell>
        <mxCell id="SpF2qePUQonXAKmZul3U-61" value="" style="shape=image;html=1;verticalAlign=top;verticalLabelPosition=bottom;labelBackgroundColor=#ffffff;imageAspect=0;aspect=fixed;image=https://icons.diagrams.net/icon-cache1/Material_Core-2642/bookmark-outline-1046.svg" vertex="1" parent="1">
          <mxGeometry x="760" y="1686" width="14" height="18" as="geometry" />
        </mxCell>
        <mxCell id="SpF2qePUQonXAKmZul3U-71" value="" style="group" vertex="1" connectable="0" parent="1">
          <mxGeometry x="280" y="1750" width="240" height="140" as="geometry" />
        </mxCell>
        <mxCell id="SpF2qePUQonXAKmZul3U-68" value="" style="rounded=0;whiteSpace=wrap;html=1;" vertex="1" parent="SpF2qePUQonXAKmZul3U-71">
          <mxGeometry width="240" height="140" as="geometry" />
        </mxCell>
        <mxCell id="SpF2qePUQonXAKmZul3U-62" value="Ingredients" style="text;html=1;align=left;verticalAlign=middle;whiteSpace=wrap;rounded=0;fontStyle=1;fontSize=14;" vertex="1" parent="SpF2qePUQonXAKmZul3U-71">
          <mxGeometry x="1" width="80" height="30" as="geometry" />
        </mxCell>
        <mxCell id="SpF2qePUQonXAKmZul3U-64" value="&lt;div&gt;Chicken (500g)&lt;/div&gt;&lt;div&gt;&lt;br&gt;&lt;/div&gt;Chilli (1 tsp)&lt;div&gt;&lt;br&gt;&lt;/div&gt;&lt;div&gt;Rice (1 cup)&lt;/div&gt;" style="strokeWidth=1;shadow=0;dashed=0;align=center;html=1;shape=mxgraph.mockup.text.bulletedList;textColor=#666666;mainText=,,,,;textSize=17;bulletStyle=none;strokeColor=none;fillColor=none;align=left;verticalAlign=top;spacing=2;spacingBottom=0;spacingTop=0;" vertex="1" parent="SpF2qePUQonXAKmZul3U-71">
          <mxGeometry x="30" y="30" width="119" height="60" as="geometry" />
        </mxCell>
        <mxCell id="SpF2qePUQonXAKmZul3U-65" value="" style="dashed=0;labelPosition=right;align=left;shape=mxgraph.gmdl.checkbox;strokeColor=#666666;fillColor=none;strokeWidth=2;aspect=fixed;sketch=0;html=1;" vertex="1" parent="SpF2qePUQonXAKmZul3U-71">
          <mxGeometry x="8" y="35" width="16" height="16" as="geometry" />
        </mxCell>
        <mxCell id="SpF2qePUQonXAKmZul3U-66" value="" style="dashed=0;labelPosition=right;align=left;shape=mxgraph.gmdl.checkbox;strokeColor=#666666;fillColor=none;strokeWidth=2;aspect=fixed;sketch=0;html=1;" vertex="1" parent="SpF2qePUQonXAKmZul3U-71">
          <mxGeometry x="8" y="64" width="16" height="16" as="geometry" />
        </mxCell>
        <mxCell id="SpF2qePUQonXAKmZul3U-67" value="" style="dashed=0;labelPosition=right;align=left;shape=mxgraph.gmdl.checkbox;strokeColor=#666666;fillColor=none;strokeWidth=2;aspect=fixed;sketch=0;html=1;" vertex="1" parent="SpF2qePUQonXAKmZul3U-71">
          <mxGeometry x="8" y="94" width="16" height="16" as="geometry" />
        </mxCell>
        <mxCell id="SpF2qePUQonXAKmZul3U-69" value="" style="shape=image;html=1;verticalAlign=top;verticalLabelPosition=bottom;labelBackgroundColor=#ffffff;imageAspect=0;aspect=fixed;image=https://icons.diagrams.net/icon-cache1/Ionicons-2627/icon-ios7-copy-outline-1230.svg" vertex="1" parent="SpF2qePUQonXAKmZul3U-71">
          <mxGeometry x="205.5" y="3" width="27" height="27" as="geometry" />
        </mxCell>
        <mxCell id="SpF2qePUQonXAKmZul3U-73" value="" style="rounded=0;whiteSpace=wrap;html=1;" vertex="1" parent="1">
          <mxGeometry x="281" y="1920" width="489" height="120" as="geometry" />
        </mxCell>
        <mxCell id="SpF2qePUQonXAKmZul3U-74" value="&lt;font style=&quot;font-size: 14px;&quot;&gt;Recipe&lt;/font&gt;" style="text;html=1;whiteSpace=wrap;overflow=hidden;rounded=0;fontStyle=1" vertex="1" parent="1">
          <mxGeometry x="288" y="1920" width="180" height="30" as="geometry" />
        </mxCell>
        <mxCell id="SpF2qePUQonXAKmZul3U-75" value="&lt;ol&gt;&lt;li&gt;Instruction 1&lt;/li&gt;&lt;li&gt;Instruction 2&lt;/li&gt;&lt;li&gt;Instruction 3&lt;/li&gt;&lt;/ol&gt;" style="text;strokeColor=none;fillColor=none;html=1;whiteSpace=wrap;verticalAlign=middle;overflow=hidden;" vertex="1" parent="1">
          <mxGeometry x="270" y="1940" width="300" height="80" as="geometry" />
        </mxCell>
        <mxCell id="SpF2qePUQonXAKmZul3U-79" value="" style="group" vertex="1" connectable="0" parent="1">
          <mxGeometry x="560" y="1794" width="113" height="52" as="geometry" />
        </mxCell>
        <mxCell id="SpF2qePUQonXAKmZul3U-76" value="" style="dashed=0;verticalLabelPosition=bottom;verticalAlign=top;align=center;shape=mxgraph.gmdl.slider2;barPos=50;strokeColor=#3F51B5;opacity=100;strokeWidth=2;fillColor=#3F51B5;handleSize=10;shadow=0;html=1;" vertex="1" parent="SpF2qePUQonXAKmZul3U-79">
          <mxGeometry x="3" y="42" width="110" height="10" as="geometry" />
        </mxCell>
        <mxCell id="SpF2qePUQonXAKmZul3U-77" value="Serves" style="text;html=1;align=left;verticalAlign=middle;whiteSpace=wrap;rounded=0;" vertex="1" parent="SpF2qePUQonXAKmZul3U-79">
          <mxGeometry y="1" width="40" height="30" as="geometry" />
        </mxCell>
        <mxCell id="SpF2qePUQonXAKmZul3U-78" value="4" style="whiteSpace=wrap;html=1;aspect=fixed;" vertex="1" parent="SpF2qePUQonXAKmZul3U-79">
          <mxGeometry x="43" width="32" height="32" as="geometry" />
        </mxCell>
        <mxCell id="SpF2qePUQonXAKmZul3U-80" value="" style="group" vertex="1" connectable="0" parent="1">
          <mxGeometry x="550" y="1750" width="150" height="27" as="geometry" />
        </mxCell>
        <mxCell id="SpF2qePUQonXAKmZul3U-70" value="" style="shape=image;html=1;verticalAlign=top;verticalLabelPosition=bottom;labelBackgroundColor=#ffffff;imageAspect=0;aspect=fixed;image=https://icons.diagrams.net/icon-cache1/Phosphor_Duotone_Vol_4-2933/toggle-left-duotone-1282.svg" vertex="1" parent="SpF2qePUQonXAKmZul3U-80">
          <mxGeometry y="4.5" width="18" height="18" as="geometry" />
        </mxCell>
        <mxCell id="SpF2qePUQonXAKmZul3U-72" value="Metric / Imperial" style="text;html=1;align=left;verticalAlign=top;whiteSpace=wrap;rounded=0;" vertex="1" parent="SpF2qePUQonXAKmZul3U-80">
          <mxGeometry x="20" width="130" height="27" as="geometry" />
        </mxCell>
      </root>
    </mxGraphModel>
  </diagram>
</mxfile>
